<mxfile host="app.diagrams.net" agent="Mozilla/5.0 (Windows NT 10.0; Win64; x64) AppleWebKit/537.36 (KHTML, like Gecko) Chrome/137.0.0.0 Safari/537.36" version="27.1.6">
  <diagram name="Page-1" id="eo9wDZJBWJ0u00q_GH3d">
    <mxGraphModel dx="1426" dy="743" grid="0" gridSize="10" guides="1" tooltips="1" connect="1" arrows="1" fold="1" page="1" pageScale="1" pageWidth="850" pageHeight="1100" background="light-dark(#FFFFFF, #050d1a)" math="0" shadow="0">
      <root>
        <mxCell id="0" />
        <mxCell id="1" parent="0" />
        <mxCell id="Y634mGEB2hLNOPYbDaVw-12" style="edgeStyle=orthogonalEdgeStyle;rounded=0;orthogonalLoop=1;jettySize=auto;html=1;exitX=0.5;exitY=1;exitDx=0;exitDy=0;" edge="1" parent="1" source="Y634mGEB2hLNOPYbDaVw-4">
          <mxGeometry relative="1" as="geometry">
            <mxPoint x="425" y="289" as="targetPoint" />
          </mxGeometry>
        </mxCell>
        <mxCell id="Y634mGEB2hLNOPYbDaVw-4" value="" style="image;aspect=fixed;perimeter=ellipsePerimeter;html=1;align=center;shadow=0;dashed=0;spacingTop=3;image=img/lib/active_directory/windows_server.svg;" vertex="1" parent="1">
          <mxGeometry x="375" y="92" width="100" height="121.95" as="geometry" />
        </mxCell>
        <mxCell id="Y634mGEB2hLNOPYbDaVw-5" value="" style="image;aspect=fixed;perimeter=ellipsePerimeter;html=1;align=center;shadow=0;dashed=0;spacingTop=3;image=img/lib/active_directory/database_server.svg;" vertex="1" parent="1">
          <mxGeometry x="635" y="550" width="90" height="109.76" as="geometry" />
        </mxCell>
        <mxCell id="Y634mGEB2hLNOPYbDaVw-6" value="" style="image;points=[];aspect=fixed;html=1;align=center;shadow=0;dashed=0;image=img/lib/allied_telesis/computer_and_terminals/Personal_Computer_with_Server.svg;" vertex="1" parent="1">
          <mxGeometry x="129" y="550" width="119.4" height="119.4" as="geometry" />
        </mxCell>
        <mxCell id="Y634mGEB2hLNOPYbDaVw-7" value="" style="rounded=1;whiteSpace=wrap;html=1;" vertex="1" parent="1">
          <mxGeometry x="219" y="294" width="413" height="91" as="geometry" />
        </mxCell>
        <mxCell id="Y634mGEB2hLNOPYbDaVw-8" value="&lt;font face=&quot;Lucida Console&quot;&gt;Client&lt;/font&gt;" style="text;strokeColor=none;align=center;fillColor=none;html=1;verticalAlign=middle;whiteSpace=wrap;rounded=0;fontSize=20;" vertex="1" parent="1">
          <mxGeometry x="148.85" y="677.82" width="79.7" height="30" as="geometry" />
        </mxCell>
        <mxCell id="Y634mGEB2hLNOPYbDaVw-9" value="&lt;font face=&quot;Lucida Console&quot;&gt;Member Server&lt;/font&gt;" style="text;strokeColor=none;align=center;fillColor=none;html=1;verticalAlign=middle;whiteSpace=wrap;rounded=0;fontSize=20;" vertex="1" parent="1">
          <mxGeometry x="594" y="679" width="167" height="30" as="geometry" />
        </mxCell>
        <mxCell id="Y634mGEB2hLNOPYbDaVw-10" value="&lt;font face=&quot;Lucida Console&quot;&gt;Key Distribution Center&lt;/font&gt;" style="text;strokeColor=none;align=center;fillColor=none;html=1;verticalAlign=middle;whiteSpace=wrap;rounded=0;fontSize=20;" vertex="1" parent="1">
          <mxGeometry x="284" y="396" width="291" height="28" as="geometry" />
        </mxCell>
        <mxCell id="Y634mGEB2hLNOPYbDaVw-11" value="&lt;font face=&quot;Lucida Console&quot;&gt;Domain Controller&lt;/font&gt;" style="text;strokeColor=none;align=center;fillColor=none;html=1;verticalAlign=middle;whiteSpace=wrap;rounded=0;fontSize=20;" vertex="1" parent="1">
          <mxGeometry x="307.5" y="55" width="244" height="30" as="geometry" />
        </mxCell>
        <mxCell id="Y634mGEB2hLNOPYbDaVw-44" style="edgeStyle=orthogonalEdgeStyle;rounded=0;orthogonalLoop=1;jettySize=auto;html=1;exitX=1;exitY=0.7;exitDx=0;exitDy=0;entryX=0;entryY=0.75;entryDx=0;entryDy=0;" edge="1" parent="1" source="Y634mGEB2hLNOPYbDaVw-13" target="Y634mGEB2hLNOPYbDaVw-42">
          <mxGeometry relative="1" as="geometry" />
        </mxCell>
        <mxCell id="Y634mGEB2hLNOPYbDaVw-13" value="" style="shape=datastore;whiteSpace=wrap;html=1;" vertex="1" parent="1">
          <mxGeometry x="262.5" y="304" width="45" height="41" as="geometry" />
        </mxCell>
        <mxCell id="Y634mGEB2hLNOPYbDaVw-15" value="" style="shape=mxgraph.sap.icon;labelPosition=center;verticalLabelPosition=bottom;align=center;verticalAlign=top;strokeWidth=1;strokeColor=#D5DADD;fillColor=#EDEFF0;gradientColor=#FCFCFC;gradientDirection=west;aspect=fixed;SAPIcon=Service_Ticket_Intelligence2" vertex="1" parent="1">
          <mxGeometry x="549" y="299.5" width="50" height="50" as="geometry" />
        </mxCell>
        <mxCell id="Y634mGEB2hLNOPYbDaVw-16" value="&lt;font style=&quot;font-size: 12px;&quot; face=&quot;Lucida Console&quot;&gt;Kerberos Database&lt;/font&gt;" style="text;strokeColor=none;align=center;fillColor=none;html=1;verticalAlign=middle;whiteSpace=wrap;rounded=0;fontSize=16;" vertex="1" parent="1">
          <mxGeometry x="229.85" y="348" width="110.3" height="30" as="geometry" />
        </mxCell>
        <mxCell id="Y634mGEB2hLNOPYbDaVw-18" value="&lt;font style=&quot;font-size: 12px;&quot; face=&quot;Lucida Console&quot;&gt;Authentication Service&lt;/font&gt;" style="text;strokeColor=none;align=center;fillColor=none;html=1;verticalAlign=middle;whiteSpace=wrap;rounded=0;fontSize=16;" vertex="1" parent="1">
          <mxGeometry x="356.2" y="349.5" width="138.6" height="30" as="geometry" />
        </mxCell>
        <mxCell id="Y634mGEB2hLNOPYbDaVw-19" value="&lt;font style=&quot;font-size: 12px;&quot; face=&quot;Lucida Console&quot;&gt;Ticket Granting Service&lt;/font&gt;" style="text;strokeColor=none;align=center;fillColor=none;html=1;verticalAlign=middle;whiteSpace=wrap;rounded=0;fontSize=16;" vertex="1" parent="1">
          <mxGeometry x="504.7" y="349.5" width="138.6" height="30" as="geometry" />
        </mxCell>
        <mxCell id="Y634mGEB2hLNOPYbDaVw-37" style="edgeStyle=orthogonalEdgeStyle;rounded=0;orthogonalLoop=1;jettySize=auto;html=1;exitX=0.9;exitY=0.5;exitDx=0;exitDy=0;exitPerimeter=0;" edge="1" parent="1" target="Y634mGEB2hLNOPYbDaVw-10">
          <mxGeometry relative="1" as="geometry">
            <mxPoint x="474" y="427" as="targetPoint" />
            <mxPoint x="249.70000000000005" y="596.8800000000001" as="sourcePoint" />
            <Array as="points">
              <mxPoint x="475" y="597" />
            </Array>
          </mxGeometry>
        </mxCell>
        <mxCell id="Y634mGEB2hLNOPYbDaVw-33" value="" style="shape=actor;whiteSpace=wrap;html=1;" vertex="1" parent="1">
          <mxGeometry x="168.7" y="574.88" width="40" height="60" as="geometry" />
        </mxCell>
        <mxCell id="Y634mGEB2hLNOPYbDaVw-38" value="&lt;div style=&quot;text-align: center;&quot;&gt;&lt;span style=&quot;font-size: 12px; font-family: &amp;quot;Lucida Console&amp;quot;; background-color: transparent; color: light-dark(rgb(0, 0, 0), rgb(255, 255, 255));&quot;&gt;1. AS-REQ&lt;/span&gt;&lt;/div&gt;&lt;div&gt;&lt;font face=&quot;Lucida Console&quot;&gt;&lt;span style=&quot;font-size: 12px;&quot;&gt;* Principal Name and Domain Name&lt;/span&gt;&lt;/font&gt;&lt;/div&gt;&lt;div style=&quot;&quot;&gt;&lt;font face=&quot;Lucida Console&quot;&gt;&lt;span style=&quot;font-size: 12px;&quot;&gt;* Requested Service (TGS)&lt;/span&gt;&lt;/font&gt;&lt;/div&gt;&lt;div style=&quot;&quot;&gt;&lt;font face=&quot;Lucida Console&quot;&gt;&lt;span style=&quot;font-size: 12px;&quot;&gt;* Timestamp encrypted with client&#39;s password hash&lt;/span&gt;&lt;/font&gt;&lt;/div&gt;" style="text;strokeColor=none;align=left;fillColor=none;html=1;verticalAlign=middle;whiteSpace=wrap;rounded=0;fontSize=16;" vertex="1" parent="1">
          <mxGeometry x="265" y="651" width="285" height="30" as="geometry" />
        </mxCell>
        <mxCell id="Y634mGEB2hLNOPYbDaVw-43" style="edgeStyle=orthogonalEdgeStyle;rounded=0;orthogonalLoop=1;jettySize=auto;html=1;exitX=0;exitY=0.5;exitDx=0;exitDy=0;entryX=1;entryY=0.5;entryDx=0;entryDy=0;" edge="1" parent="1" source="Y634mGEB2hLNOPYbDaVw-42" target="Y634mGEB2hLNOPYbDaVw-13">
          <mxGeometry relative="1" as="geometry" />
        </mxCell>
        <mxCell id="Y634mGEB2hLNOPYbDaVw-42" value="" style="image;aspect=fixed;perimeter=ellipsePerimeter;html=1;align=center;shadow=0;dashed=0;spacingTop=3;image=img/lib/active_directory/key.svg;" vertex="1" parent="1">
          <mxGeometry x="404.5" y="306" width="50" height="37" as="geometry" />
        </mxCell>
        <mxCell id="Y634mGEB2hLNOPYbDaVw-45" value="&lt;font style=&quot;font-size: 12px;&quot; face=&quot;Lucida Console&quot;&gt;2.&lt;/font&gt;&lt;div&gt;&lt;font style=&quot;font-size: 12px;&quot; face=&quot;Lucida Console&quot;&gt;AS Looks up the client&#39;s credentials in the database and attempts to decrypt the timestamp using the Client&#39;s password hash.&amp;nbsp; If the decryption is successful, the AS determines the client is legitimate.&lt;/font&gt;&lt;/div&gt;" style="text;strokeColor=none;align=center;fillColor=none;html=1;verticalAlign=middle;whiteSpace=wrap;rounded=0;fontSize=16;" vertex="1" parent="1">
          <mxGeometry x="163" y="150" width="197.3" height="79" as="geometry" />
        </mxCell>
        <mxCell id="Y634mGEB2hLNOPYbDaVw-48" style="edgeStyle=orthogonalEdgeStyle;rounded=0;orthogonalLoop=1;jettySize=auto;html=1;exitX=0.5;exitY=1;exitDx=0;exitDy=0;entryX=0.997;entryY=0.059;entryDx=0;entryDy=0;entryPerimeter=0;" edge="1" parent="1" source="Y634mGEB2hLNOPYbDaVw-10" target="Y634mGEB2hLNOPYbDaVw-6">
          <mxGeometry relative="1" as="geometry" />
        </mxCell>
        <mxCell id="Y634mGEB2hLNOPYbDaVw-49" value="&lt;font face=&quot;Lucida Console&quot;&gt;&lt;span style=&quot;font-size: 12px;&quot;&gt;3. AS-REP&lt;/span&gt;&lt;/font&gt;&lt;div&gt;&lt;div style=&quot;text-align: left;&quot;&gt;&lt;font face=&quot;Lucida Console&quot;&gt;&lt;span style=&quot;font-size: 12px;&quot;&gt;* Client&#39;s Principal Name and Domain Name&lt;/span&gt;&lt;/font&gt;&lt;/div&gt;&lt;div style=&quot;text-align: left;&quot;&gt;&lt;font face=&quot;Lucida Console&quot;&gt;&lt;span style=&quot;font-size: 12px;&quot;&gt;* Session Key (Encrypted using client&#39;s password)&lt;/span&gt;&lt;/font&gt;&lt;/div&gt;&lt;/div&gt;&lt;div style=&quot;text-align: left;&quot;&gt;&lt;font face=&quot;Lucida Console&quot;&gt;&lt;span style=&quot;font-size: 12px;&quot;&gt;* TGT encrypted with the TGS&#39;s password and conains:&lt;/span&gt;&lt;/font&gt;&lt;/div&gt;&lt;div style=&quot;text-align: left;&quot;&gt;&lt;font face=&quot;Lucida Console&quot;&gt;&lt;span style=&quot;font-size: 12px;&quot;&gt;&amp;nbsp; - Client Identity&lt;/span&gt;&lt;/font&gt;&lt;/div&gt;&lt;div style=&quot;text-align: left;&quot;&gt;&lt;font face=&quot;Lucida Console&quot;&gt;&lt;span style=&quot;font-size: 12px;&quot;&gt;&amp;nbsp; - Session Key&lt;/span&gt;&lt;/font&gt;&lt;/div&gt;&lt;div style=&quot;text-align: left;&quot;&gt;&lt;font face=&quot;Lucida Console&quot;&gt;&lt;span style=&quot;font-size: 12px;&quot;&gt;&amp;nbsp; - Timestamp&lt;/span&gt;&lt;/font&gt;&lt;/div&gt;&lt;div style=&quot;text-align: left;&quot;&gt;&lt;font face=&quot;Lucida Console&quot;&gt;&lt;span style=&quot;font-size: 12px;&quot;&gt;&amp;nbsp; - Ticket lifetime&lt;/span&gt;&lt;/font&gt;&lt;/div&gt;" style="text;strokeColor=none;align=center;fillColor=none;html=1;verticalAlign=middle;whiteSpace=wrap;rounded=0;fontSize=16;" vertex="1" parent="1">
          <mxGeometry x="16" y="448" width="383" height="79" as="geometry" />
        </mxCell>
      </root>
    </mxGraphModel>
  </diagram>
</mxfile>
